<svg width="33" height="39" viewBox="0 0 33 39" fill="none" xmlns="http://www.w3.org/2000/svg">
<path d="M29.9589 38.0397C31.477 38.0397 32.7076 36.5289 32.7076 34.6652C32.7076 32.8016 31.477 31.2907 29.9589 31.2907C28.4408 31.2907 27.2102 32.8016 27.2102 34.6652C27.2102 36.5289 28.4408 38.0397 29.9589 38.0397Z" fill="white"/>
<path d="M13.342 38.0397C14.86 38.0397 16.0907 36.5289 16.0907 34.6652C16.0907 32.8016 14.86 31.2907 13.342 31.2907C11.8239 31.2907 10.5933 32.8016 10.5933 34.6652C10.5933 36.5289 11.8239 38.0397 13.342 38.0397Z" fill="white"/>
<path d="M0.272705 3.8147e-06H6.16994L10.1211 23.0812C10.2559 23.8748 10.6252 24.5877 11.1642 25.0951C11.7033 25.6025 12.3778 25.872 13.0697 25.8565H27.4C28.0919 25.872 28.7664 25.6025 29.3055 25.0951C29.8445 24.5877 30.2138 23.8748 30.3486 23.0812L32.7075 8.61883H7.64425" stroke="white" stroke-width="7" stroke-linecap="round" stroke-linejoin="round"/>
</svg>
